<?xml version="1.0" standalone="no"?>
<!DOCTYPE svg PUBLIC "-//W3C//DTD SVG 20010904//EN"
 "http://www.w3.org/TR/2001/REC-SVG-20010904/DTD/svg10.dtd">
<svg version="1.0" xmlns="http://www.w3.org/2000/svg"
 width="500.000000pt" height="500.000000pt" viewBox="0 0 500.000000 500.000000"
 preserveAspectRatio="xMidYMid meet">

<g transform="translate(0.000000,500.000000) scale(0.100000,-0.100000)"
fill="#000000" stroke="none">
<path d="M2425 4399 c-132 -17 -238 -49 -350 -104 -261 -128 -448 -353 -523
-630 -19 -70 -25 -123 -29 -240 -5 -138 -3 -159 22 -265 15 -63 44 -152 65
-197 92 -199 311 -437 553 -603 85 -58 164 -138 201 -203 12 -23 49 -89 81
-147 32 -58 62 -111 68 -118 11 -14 18 -5 86 123 66 124 192 264 331 368 129
97 292 262 402 407 146 194 222 491 188 735 -16 112 -79 297 -134 388 -45 76
-163 213 -229 266 -123 98 -265 165 -422 200 -52 11 -212 32 -230 30 -5 -1
-41 -6 -80 -10z m230 -120 c230 -27 468 -176 600 -374 65 -98 91 -149 121
-238 61 -180 56 -403 -13 -587 -72 -190 -260 -416 -512 -615 -117 -92 -206
-180 -268 -266 -32 -43 -60 -79 -64 -79 -3 0 -23 28 -43 62 -44 76 -134 198
-146 198 -11 0 -162 113 -262 197 -298 248 -457 553 -442 848 8 161 37 260
116 405 56 102 95 150 205 245 197 172 425 238 708 204z"/>
<path d="M2313 2004 c-128 -33 -192 -89 -179 -158 12 -61 80 -102 218 -130
198 -41 462 2 533 86 31 36 33 86 5 121 -36 46 -205 111 -221 85 -12 -18 -3
-25 42 -32 79 -13 159 -71 159 -116 0 -10 -14 -31 -31 -48 -117 -115 -616 -94
-657 27 -20 59 24 102 141 135 52 15 69 28 50 39 -5 3 -31 -1 -60 -9z"/>
</g>
</svg>
